<?xml version="1.0" standalone="no"?>
<!DOCTYPE svg PUBLIC "-//W3C//DTD SVG 20010904//EN"
 "http://www.w3.org/TR/2001/REC-SVG-20010904/DTD/svg10.dtd">
<svg version="1.0" xmlns="http://www.w3.org/2000/svg"
 width="1080.000000pt" height="1080.000000pt" viewBox="0 0 1080.000000 1080.000000"
 preserveAspectRatio="xMidYMid meet">
<metadata>
Created by potrace 1.14, written by Peter Selinger 2001-2017
</metadata>
<g transform="translate(0.000000,1080.000000) scale(0.100000,-0.100000)"
fill="#000000" stroke="none">
<path d="M0 5400 l0 -5400 5400 0 5400 0 0 5400 0 5400 -3004 0 -3003 0 -7
-177 c-4 -98 -13 -347 -21 -553 -43 -1108 -45 -2830 -4 -3590 24 -449 54 -869
84 -1155 9 -82 22 -210 29 -282 13 -125 16 -135 44 -168 17 -19 33 -49 36 -67
12 -77 16 -162 17 -305 0 -120 3 -154 14 -163 13 -11 15 -4 15 48 0 91 17 157
67 262 38 79 59 109 127 176 91 91 163 131 292 164 87 23 240 27 326 9 168
-35 343 -182 417 -350 48 -110 65 -299 35 -413 -20 -76 -88 -207 -134 -256
-47 -50 -113 -92 -187 -119 -35 -13 -63 -27 -63 -32 0 -4 14 -23 31 -41 35
-38 119 -153 119 -163 0 -4 21 -33 48 -64 210 -249 299 -429 253 -514 -18 -34
-51 -47 -118 -47 -79 0 -124 29 -265 170 -64 65 -137 134 -161 154 -40 33 -48
36 -66 24 -17 -10 -30 -8 -88 19 -68 32 -143 58 -146 51 -28 -53 -37 -56 -101
-27 -44 19 -47 23 -41 47 4 15 7 31 8 36 1 5 -35 28 -80 50 -45 23 -95 54
-111 69 -31 30 -43 33 -72 15 -19 -12 -30 -11 -132 19 -12 4 -15 0 -12 -14 8
-31 -17 -45 -57 -32 -45 16 -59 27 -59 50 0 15 8 19 33 20 20 1 25 3 12 6
-100 23 -125 35 -125 57 0 13 31 86 69 162 39 76 68 140 66 143 -3 2 -18 -2
-35 -9 -29 -12 -33 -11 -58 13 -39 37 -88 139 -111 228 -67 262 -6 590 123
658 29 16 29 10 6 191 -42 336 -92 1044 -116 1620 -3 91 -8 197 -9 235 -2 39
-7 385 -11 770 -7 677 3 1432 26 2080 5 143 14 397 20 565 5 168 12 333 15
368 l6 62 -2371 0 -2370 0 0 -5400z m6350 -1302 c34 -26 49 -56 50 -96 0 -39
-45 -132 -64 -132 -8 0 -22 -12 -31 -27 -10 -16 -24 -32 -32 -36 -7 -4 -13
-18 -13 -31 0 -13 -7 -29 -14 -36 -8 -6 -20 -27 -26 -46 -9 -27 -16 -34 -29
-29 -9 4 -22 9 -28 12 -27 11 -11 -27 17 -42 34 -18 38 -43 12 -75 l-19 -23
-41 44 c-23 24 -42 51 -42 60 0 9 16 60 35 113 19 53 38 122 41 154 5 44 15
68 44 107 20 28 45 65 54 83 19 37 39 37 86 0z m-210 -192 c0 -10 -62 -193
-72 -214 -10 -19 -13 -20 -27 -8 -28 25 -100 133 -94 140 4 3 13 6 22 6 9 0
45 18 81 39 59 36 90 48 90 37z m-1520 -290 c21 -10 25 -18 22 -50 -4 -50 -43
-146 -63 -159 -12 -8 -38 -2 -98 22 -70 29 -81 37 -81 57 0 28 36 108 55 124
36 30 110 33 165 6z m164 -31 c32 -8 90 -28 130 -44 39 -16 143 -57 231 -91
220 -85 358 -141 370 -150 6 -5 37 -18 70 -29 85 -30 92 -39 66 -90 -14 -26
-25 -75 -31 -134 -10 -106 -56 -236 -98 -280 -14 -15 -50 -39 -80 -54 -51 -25
-52 -26 -37 -47 8 -11 20 -31 25 -43 5 -13 12 -23 15 -23 13 0 64 31 72 42 4
7 20 23 34 36 l27 23 43 -47 c24 -25 77 -69 117 -96 93 -63 100 -77 77 -165
-26 -99 -97 -245 -137 -278 -60 -51 -114 -69 -205 -66 -50 1 -97 36 -119 89
-21 51 -39 68 -119 116 -103 60 -181 144 -237 251 -40 75 -47 85 -48 60 0 -60
43 -171 89 -229 36 -45 37 -48 14 -68 -61 -53 -181 -70 -236 -34 -36 24 -57
65 -57 110 0 20 -7 41 -17 51 -138 129 -184 192 -224 305 -29 83 -29 175 -1
293 25 100 72 220 108 272 19 28 22 40 14 55 -14 26 -12 62 4 86 8 11 22 49
31 85 18 76 32 109 43 109 4 0 34 -7 66 -15z m1038 -362 c21 -19 23 -51 5 -78
-8 -11 -35 -67 -61 -125 -26 -58 -59 -115 -72 -127 -31 -28 -69 -31 -61 -5 30
105 47 182 47 208 0 25 11 44 45 81 25 26 45 51 45 55 0 14 33 9 52 -9z m99
-95 c36 -38 34 -61 -6 -68 -41 -7 -64 -49 -46 -84 15 -27 8 -55 -32 -124 -28
-48 -46 -54 -107 -36 l-52 15 41 39 c23 22 41 45 41 52 0 7 13 38 29 69 15 31
31 67 34 80 9 34 45 89 58 89 6 0 24 -14 40 -32z"/>
<path d="M6200 3820 c0 -9 31 -30 44 -30 13 0 5 28 -10 34 -23 9 -34 7 -34 -4z"/>
<path d="M4724 3216 c49 -40 151 -93 224 -115 104 -31 266 -61 335 -61 92 0
58 19 -54 30 -140 14 -196 25 -275 54 -39 14 -80 26 -91 26 -12 0 -26 7 -33
15 -7 8 -17 15 -22 15 -6 0 -27 14 -48 30 -21 17 -44 30 -51 30 -8 -1 -1 -11
15 -24z"/>
<path d="M4869 2793 c-12 -3 -16 -15 -15 -46 0 -23 -2 -49 -4 -57 -4 -12 5
-15 38 -16 34 -1 42 2 38 13 -4 8 -6 37 -6 64 0 51 -5 55 -51 42z"/>
<path d="M4941 2614 c0 -11 3 -14 6 -6 3 7 2 16 -1 19 -3 4 -6 -2 -5 -13z"/>
<path d="M5452 4884 c-92 -20 -195 -78 -266 -149 -184 -184 -196 -467 -27
-628 127 -121 380 -217 529 -201 156 16 242 61 321 169 214 290 61 719 -288
810 -71 18 -183 18 -269 -1z m48 -84 c25 -25 40 -62 40 -96 0 -21 -10 -30 -66
-55 -160 -71 -254 -184 -318 -382 -11 -33 -40 -15 -53 33 -43 162 82 401 257
488 73 37 112 40 140 12z m260 -476 c39 -26 50 -45 50 -87 0 -49 -13 -73 -50
-92 -43 -22 -76 -18 -112 14 -28 25 -33 36 -33 76 0 40 5 51 33 76 37 33 75
37 112 13z m67 -230 c8 -21 -13 -42 -28 -27 -13 13 -5 43 11 43 6 0 13 -7 17
-16z"/>
<path d="M6148 4203 c-26 -29 -32 -67 -12 -83 14 -13 19 -11 36 10 20 25 22
81 2 87 -6 2 -18 -4 -26 -14z"/>
<path d="M4900 3879 c-14 -34 -8 -44 31 -54 21 -5 30 -2 43 16 30 44 16 69
-39 69 -16 0 -26 -9 -35 -31z"/>
</g>
</svg>
